<?xml version="1.0" standalone="no"?>
<!DOCTYPE svg PUBLIC "-//W3C//DTD SVG 20010904//EN"
 "http://www.w3.org/TR/2001/REC-SVG-20010904/DTD/svg10.dtd">
<svg version="1.0" xmlns="http://www.w3.org/2000/svg"
 width="960.000000pt" height="960.000000pt" viewBox="0 0 960.000000 960.000000"
 preserveAspectRatio="xMidYMid meet">
<metadata>
Created by potrace 1.14, written by Peter Selinger 2001-2017
</metadata>
<g transform="translate(0.000000,960.000000) scale(0.100000,-0.100000)"
fill="#000000" stroke="none">
<path d="M0 4800 l0 -4800 4800 0 4800 0 0 4800 0 4800 -4800 0 -4800 0 0
-4800z m5111 2915 c147 -14 202 -22 521 -80 76 -13 197 -31 270 -39 183 -22
545 -38 647 -30 96 8 101 5 101 -67 0 -81 -38 -265 -76 -364 -4 -10 12 -9 68
4 78 19 130 42 164 73 28 25 29 20 44 -128 6 -66 15 -144 18 -174 l7 -55 76
75 c72 71 129 162 129 204 0 79 86 -138 136 -344 14 -58 68 -233 119 -390 52
-157 103 -319 114 -360 34 -122 27 -289 -29 -710 -35 -264 -63 -595 -75 -894
-5 -119 -4 -157 5 -151 6 4 53 91 103 194 134 269 184 380 292 639 22 51 44
91 50 89 19 -6 73 -129 84 -192 37 -209 -5 -441 -140 -785 -125 -320 -267
-537 -405 -620 -47 -28 -67 -34 -115 -35 l-58 0 -12 -45 c-120 -455 -179 -592
-358 -825 -77 -100 -301 -376 -362 -445 -31 -36 -144 -164 -249 -284 -106
-121 -201 -229 -211 -239 -17 -18 -30 -79 -44 -204 -9 -85 20 -179 117 -374
104 -213 112 -239 104 -344 -26 -341 -265 -574 -666 -650 -328 -62 -833 -1
-1203 146 -208 82 -372 183 -489 301 -70 70 -132 180 -178 317 -31 93 -28 105
43 180 66 70 144 177 177 241 49 97 51 123 39 565 l-12 410 -74 88 c-192 230
-292 393 -381 617 -66 168 -106 325 -157 628 -20 114 -38 219 -41 234 -5 24
-10 26 -49 26 -94 0 -170 32 -253 107 -173 156 -304 464 -341 807 -16 141 -14
446 4 552 16 100 48 201 76 237 15 20 19 21 19 7 0 -24 6 -23 50 12 44 35 41
38 61 -70 15 -85 32 -146 86 -315 45 -138 159 -441 173 -460 4 -5 29 -62 55
-125 25 -63 50 -119 55 -123 4 -5 11 47 14 115 14 273 47 1047 54 1263 l8 231
36 75 c19 42 62 118 95 170 102 160 107 172 149 358 112 496 358 784 775 905
77 22 230 50 319 59 96 10 384 5 521 -8z"/>
<path d="M4250 6294 c-14 -2 -59 -9 -100 -15 -161 -24 -307 -78 -416 -155
-135 -95 -257 -293 -271 -437 -4 -52 -2 -66 14 -86 24 -30 37 -23 61 32 49
110 215 191 467 227 267 38 706 -41 1042 -186 6 -3 21 4 32 15 56 56 -13 301
-121 425 -86 100 -204 152 -398 176 -80 9 -255 12 -310 4z"/>
<path d="M6253 6105 c-174 -47 -282 -160 -328 -343 -9 -34 -15 -77 -13 -95 4
-38 -14 -37 278 -18 359 22 784 -30 943 -116 82 -45 151 -135 186 -245 31 -95
84 -31 94 113 11 145 -43 280 -157 394 -103 103 -248 183 -470 259 -177 61
-411 83 -533 51z"/>
<path d="M4240 5549 c-222 -24 -545 -145 -566 -211 -20 -64 236 -205 492 -272
152 -40 283 -56 449 -56 159 0 198 9 203 45 6 47 -7 50 -175 47 l-158 -3 51
30 c99 58 164 160 164 259 0 33 1 34 30 28 56 -11 175 -66 224 -103 65 -50 91
-92 75 -126 -15 -33 3 -67 36 -67 31 0 53 23 61 66 26 140 -195 297 -491 349
-111 19 -292 26 -395 14z m-139 -185 c6 -69 47 -152 92 -190 37 -32 28 -30
-98 11 -103 34 -285 120 -285 135 0 17 248 112 275 106 6 -2 13 -29 16 -62z"/>
<path d="M6155 5343 c-58 -8 -141 -35 -199 -66 -97 -52 -142 -135 -117 -218
13 -42 41 -64 71 -54 25 8 35 46 21 73 -6 12 -11 25 -11 31 0 22 62 80 107 99
94 39 90 40 90 -28 1 -72 37 -155 84 -195 l31 -25 -70 6 c-65 6 -71 5 -81 -15
-14 -25 -1 -57 26 -65 111 -34 478 -42 611 -13 113 24 238 71 314 117 54 32
63 42 66 70 3 29 -4 40 -54 87 -96 91 -260 158 -460 188 -91 14 -350 18 -429
8z m645 -160 c69 -27 171 -90 177 -109 9 -28 -248 -111 -397 -129 l-54 -6 45
40 c52 45 87 116 96 192 6 50 6 50 37 43 17 -3 60 -17 96 -31z"/>
</g>
</svg>
